<?xml version="1.0" encoding="UTF-8"?>
<svg version="1.1" xmlns="http://www.w3.org/2000/svg" width="1024" height="1024">
<path d="M0 0 C337.92 0 675.84 0 1024 0 C1024 337.92 1024 675.84 1024 1024 C686.08 1024 348.16 1024 0 1024 C0 686.08 0 348.16 0 0 Z " fill="#ECEBEC" transform="translate(0,0)"/>
<path d="M0 0 C7.89786172 6.33419111 14.51415176 15.72089761 16.328125 25.8671875 C17.50855744 38.8906471 13.62459649 48.89776497 5.328125 58.8671875 C-6.7705575 72.29832402 -25.23948422 74.78431133 -42.296875 76.4296875 C-61.46844153 78.33162862 -77.97290194 80.66550203 -90.91796875 96.34375 C-102.60865428 113.16375635 -108.671875 136.47289193 -108.671875 156.8671875 C-107.41310547 156.23103516 -107.41310547 156.23103516 -106.12890625 155.58203125 C-81.1030471 143.25702609 -54.75695334 137.47069217 -26.94238281 137.55151367 C-24.67204216 137.55468727 -22.40299529 137.53102391 -20.1328125 137.50585938 C15.65904337 137.35286154 49.42152962 152.10296854 74.890625 176.9296875 C86.74136476 188.8547789 95.53858357 202.54122433 102.328125 217.8671875 C102.74118896 218.79047852 102.74118896 218.79047852 103.16259766 219.73242188 C113.08552582 242.24592495 116.55628833 265.3347457 116.515625 289.8046875 C116.51468842 290.5342868 116.51375183 291.26388611 116.51278687 292.01559448 C116.35661308 348.2881629 96.69324919 401.53116049 62.328125 445.8671875 C61.68359375 446.70636719 61.0390625 447.54554688 60.375 448.41015625 C46.84989127 465.70140298 31.09726071 481.94370502 13.328125 494.8671875 C12.27238281 495.64449219 11.21664063 496.42179687 10.12890625 497.22265625 C-5.39001159 508.31305141 -21.68063664 516.45175887 -40.046875 521.6796875 C-40.77181152 521.8869043 -41.49674805 522.09412109 -42.24365234 522.30761719 C-63.7182471 528.12110027 -87.5321279 524.67319754 -108.12890625 516.9453125 C-124.6939018 510.79508648 -141.63267239 516.00139478 -157.76171875 520.921875 C-187.45312883 529.73214736 -214.84607508 523.13759113 -241.52148438 508.96020508 C-255.07576479 501.49901964 -267.0872112 492.05649964 -278.671875 481.8671875 C-279.40664063 481.24328125 -280.14140625 480.619375 -280.8984375 479.9765625 C-289.14222288 472.94799648 -296.74680168 465.19392897 -303.671875 456.8671875 C-304.08099121 456.3825 -304.49010742 455.8978125 -304.91162109 455.3984375 C-317.9926298 439.83404817 -329.18606001 422.8398238 -338.671875 404.8671875 C-339.17726807 403.92794434 -339.17726807 403.92794434 -339.69287109 402.96972656 C-350.25565828 383.2572341 -356.54932672 362.57290055 -361.671875 340.8671875 C-361.85621094 340.10148437 -362.04054688 339.33578125 -362.23046875 338.546875 C-373.2189523 292.23177906 -367.8933319 240.80463577 -343.71484375 199.55761719 C-338.36806471 190.89162982 -331.63286247 183.25615611 -324.671875 175.8671875 C-324.07246094 175.20332031 -323.47304688 174.53945313 -322.85546875 173.85546875 C-302.56711634 152.25253627 -270.57848307 138.42294642 -241.23657227 136.66088867 C-237.56655099 136.56350792 -233.90564252 136.53833705 -230.234375 136.5546875 C-228.26247192 136.56205933 -228.26247192 136.56205933 -226.25073242 136.56958008 C-198.57866558 136.82676834 -171.57060151 143.8810215 -146.671875 155.8671875 C-146.74116211 155.21669434 -146.81044922 154.56620117 -146.88183594 153.89599609 C-151.0863556 111.67872838 -142.020153 68.45762737 -114.95629883 34.8762207 C-88.45366963 3.01934105 -39.97709134 -27.88821043 0 0 Z " fill="#73BF34" transform="translate(635.671875,233.1328125)"/>
<path d="M0 0 C7.89786172 6.33419111 14.51415176 15.72089761 16.328125 25.8671875 C17.50855744 38.8906471 13.62459649 48.89776497 5.328125 58.8671875 C-6.7705575 72.29832402 -25.23948422 74.78431133 -42.296875 76.4296875 C-61.46844153 78.33162862 -77.97290194 80.66550203 -90.91796875 96.34375 C-102.60865428 113.16375635 -108.671875 136.47289193 -108.671875 156.8671875 C-107.41310547 156.23103516 -107.41310547 156.23103516 -106.12890625 155.58203125 C-81.1030471 143.25702609 -54.75695334 137.47069217 -26.94238281 137.55151367 C-24.67204216 137.55468727 -22.40299529 137.53102391 -20.1328125 137.50585938 C15.65904337 137.35286154 49.42152962 152.10296854 74.890625 176.9296875 C86.74136476 188.8547789 95.53858357 202.54122433 102.328125 217.8671875 C102.74118896 218.79047852 102.74118896 218.79047852 103.16259766 219.73242188 C113.08552582 242.24592495 116.55628833 265.3347457 116.515625 289.8046875 C116.51468842 290.5342868 116.51375183 291.26388611 116.51278687 292.01559448 C116.35661308 348.2881629 96.69324919 401.53116049 62.328125 445.8671875 C61.68359375 446.70636719 61.0390625 447.54554688 60.375 448.41015625 C46.84989127 465.70140298 31.09726071 481.94370502 13.328125 494.8671875 C12.27238281 495.64449219 11.21664063 496.42179687 10.12890625 497.22265625 C-5.39001159 508.31305141 -21.68063664 516.45175887 -40.046875 521.6796875 C-40.77181152 521.8869043 -41.49674805 522.09412109 -42.24365234 522.30761719 C-63.7182471 528.12110027 -87.5321279 524.67319754 -108.12890625 516.9453125 C-124.6939018 510.79508648 -141.63267239 516.00139478 -157.76171875 520.921875 C-187.45312883 529.73214736 -214.84607508 523.13759113 -241.52148438 508.96020508 C-255.07576479 501.49901964 -267.0872112 492.05649964 -278.671875 481.8671875 C-279.40664063 481.24328125 -280.14140625 480.619375 -280.8984375 479.9765625 C-289.14222288 472.94799648 -296.74680168 465.19392897 -303.671875 456.8671875 C-304.08099121 456.3825 -304.49010742 455.8978125 -304.91162109 455.3984375 C-317.9926298 439.83404817 -329.18606001 422.8398238 -338.671875 404.8671875 C-339.17726807 403.92794434 -339.17726807 403.92794434 -339.69287109 402.96972656 C-350.25565828 383.2572341 -356.54932672 362.57290055 -361.671875 340.8671875 C-361.85621094 340.10148437 -362.04054688 339.33578125 -362.23046875 338.546875 C-373.2189523 292.23177906 -367.8933319 240.80463577 -343.71484375 199.55761719 C-338.36806471 190.89162982 -331.63286247 183.25615611 -324.671875 175.8671875 C-324.07246094 175.20332031 -323.47304688 174.53945313 -322.85546875 173.85546875 C-302.56711634 152.25253627 -270.57848307 138.42294642 -241.23657227 136.66088867 C-237.56655099 136.56350792 -233.90564252 136.53833705 -230.234375 136.5546875 C-228.26247192 136.56205933 -228.26247192 136.56205933 -226.25073242 136.56958008 C-198.57866558 136.82676834 -171.57060151 143.8810215 -146.671875 155.8671875 C-146.74116211 155.21669434 -146.81044922 154.56620117 -146.88183594 153.89599609 C-151.0863556 111.67872838 -142.020153 68.45762737 -114.95629883 34.8762207 C-88.45366963 3.01934105 -39.97709134 -27.88821043 0 0 Z M-286.671875 171.8671875 C-287.65800781 172.41117188 -288.64414062 172.95515625 -289.66015625 173.515625 C-297.61639003 178.23640047 -304.12925078 184.39793459 -310.671875 190.8671875 C-311.54972656 191.72054687 -312.42757812 192.57390625 -313.33203125 193.453125 C-324.8829741 205.35187754 -332.8580466 220.44234983 -338.671875 235.8671875 C-338.91131836 236.4977002 -339.15076172 237.12821289 -339.39746094 237.77783203 C-356.41067857 283.82678377 -346.64802265 339.70532836 -326.96142578 383.09814453 C-316.29701094 405.99776459 -302.83497387 427.03114575 -285.72265625 445.6328125 C-283.80801809 447.71885636 -281.95364542 449.84400796 -280.109375 451.9921875 C-273.27583565 459.79524502 -265.7993547 466.43382626 -257.671875 472.8671875 C-256.69476563 473.66125 -255.71765625 474.4553125 -254.7109375 475.2734375 C-235.43940943 490.61299133 -212.79512548 504.55030848 -187.484375 504.3046875 C-186.38794678 504.29783936 -185.29151855 504.29099121 -184.16186523 504.28393555 C-175.86008283 504.1208441 -168.57660044 503.01361951 -160.67431641 500.4921875 C-157.59134108 499.52993234 -154.47452313 498.69664544 -151.35913086 497.84643555 C-149.04874683 497.2143952 -146.74269791 496.56863154 -144.4375 495.91796875 C-143.19484375 495.57121094 -141.9521875 495.22445313 -140.671875 494.8671875 C-140.02162354 494.68542969 -139.37137207 494.50367188 -138.70141602 494.31640625 C-126.42667787 491.59951485 -113.35574818 494.04225639 -101.671875 497.8671875 C-73.38530327 506.74101272 -47.78086341 507.10982636 -21.046875 493.1796875 C-12.74326845 488.72211995 -5.11478448 483.63334641 2.328125 477.8671875 C3.24464844 477.16207031 4.16117188 476.45695312 5.10546875 475.73046875 C33.49187029 453.17974447 55.59656788 424.90059996 72.328125 392.8671875 C72.71887207 392.11985352 73.10961914 391.37251953 73.51220703 390.60253906 C83.08319159 372.02286027 89.3342656 352.34364124 93.328125 331.8671875 C93.64716797 330.41119141 93.64716797 330.41119141 93.97265625 328.92578125 C96.5464971 317.09352007 96.56917863 305.10695912 96.578125 293.0546875 C96.57879974 292.23626373 96.57947449 291.41783997 96.58016968 290.57461548 C96.52815394 250.76410314 85.58021919 216.7034705 56.95458984 188.0546875 C42.89880591 174.4851216 25.11786535 165.740805 6.328125 160.8671875 C5.12929688 160.54621094 3.93046875 160.22523438 2.6953125 159.89453125 C-32.00087048 152.23572289 -69.11271194 159.42495886 -100.30688477 175.40283203 C-109.05941009 179.82340572 -117.75617591 182.44798271 -127.609375 182.3046875 C-128.38949951 182.29421387 -129.16962402 182.28374023 -129.97338867 182.27294922 C-141.74268046 181.90565294 -151.09289395 176.71363502 -161.47753906 171.65625 C-176.53423358 164.44525071 -192.2751281 160.67126885 -208.671875 157.8671875 C-209.80238281 157.67125 -210.93289063 157.4753125 -212.09765625 157.2734375 C-238.41946184 154.28166943 -263.64100678 159.00056653 -286.671875 171.8671875 Z " fill="#012B19" transform="translate(635.671875,233.1328125)"/>
<path d="M0 0 C12.06919491 8.49398057 19.72931797 22.63762802 22.484375 37.0390625 C24.76843663 57.707581 22.15599571 78.16520525 9.1875 95.09765625 C2.77871448 102.17990736 -5.30801908 107.89637505 -14.92578125 108.953125 C-24.85952299 109.37072179 -31.82263075 106.89805582 -39.3671875 100.45703125 C-52.60228806 87.8027815 -57.98015778 71.02857506 -58.59448242 53.05395508 C-58.76180783 34.37648088 -53.66864681 17.62907067 -40.5234375 3.80859375 C-28.47647271 -7.02585186 -13.7661462 -8.81338142 0 0 Z " fill="#002B19" transform="translate(637.1171875,480.35546875)"/>
<path d="M0 0 C14.20258866 8.22863685 21.01192303 21.26095831 25.5625 36.5625 C29.57951118 54.41023324 26.99102935 74.77820954 18.3203125 90.8125 C12.72452709 99.56679539 4.91729286 107.89564713 -5.3125 110.9375 C-6.6798001 111.19150437 -8.05671286 111.39680554 -9.4375 111.5625 C-10.27023437 111.66820312 -11.10296875 111.77390625 -11.9609375 111.8828125 C-21.04596916 112.48153951 -28.44744672 108.94537126 -35.3125 103.125 C-36.01375 102.279375 -36.715 101.43375 -37.4375 100.5625 C-37.90285156 100.08554687 -38.36820312 99.60859375 -38.84765625 99.1171875 C-52.2556117 84.92052879 -54.26882395 65.66198071 -53.7578125 47.09375 C-53.47118694 40.93233144 -52.61675341 35.35059706 -50.4375 29.5625 C-50.07398438 28.5415625 -49.71046875 27.520625 -49.3359375 26.46875 C-46.87514188 20.05480528 -43.97139136 14.72175568 -39.4375 9.5625 C-38.91414063 8.94632812 -38.39078125 8.33015625 -37.8515625 7.6953125 C-27.88376381 -3.20842973 -13.46850284 -6.15801279 0 0 Z " fill="#002B19" transform="translate(413.4375,477.4375)"/>
<path d="M0 0 C5.263195 4.44561131 8.71744589 8.44855457 9.7890625 15.4140625 C8.87763379 22.24977784 6.07625896 28.14026085 0.6640625 32.5390625 C-11.30881412 40.44652206 -25.38015975 41.08827622 -39.2734375 41.6015625 C-57.31089492 42.32023743 -70.0550156 47.22690318 -83.7109375 59.1640625 C-84.31421875 59.68355469 -84.9175 60.20304687 -85.5390625 60.73828125 C-104.07155308 77.92846527 -110.58653274 102.10503471 -114.7109375 126.1640625 C-115.0409375 126.1640625 -115.3709375 126.1640625 -115.7109375 126.1640625 C-116.76962121 90.38462513 -109.59000938 57.08358648 -85.7109375 29.1640625 C-85.06922607 28.40923584 -85.06922607 28.40923584 -84.41455078 27.63916016 C-66.04031287 6.22129623 -28.15146939 -19.06511616 0 0 Z " fill="#76C234" transform="translate(622.7109375,248.8359375)"/>
<path d="M0 0 C4.23934157 1.3130704 7.3347318 4.11254919 10.70239258 6.89501953 C20.85950927 15.24613076 33.61545071 19.20315157 46.6484375 19.8203125 C47.75960937 19.88476562 48.87078125 19.94921875 50.015625 20.015625 C67.50060478 20.57011696 84.55565251 16.03509869 97.9609375 4.3828125 C101.14486608 1.69113603 103.25001811 0.24329154 107.4609375 0.0078125 C110.66073868 0.34821688 111.88218869 0.96819591 114.7109375 2.7578125 C116.93696311 6.27636912 117.52003428 8.38123985 117.234375 12.49609375 C115.30639846 20.14373401 107.69745471 24.61381628 101.39355469 28.59228516 C79.93860399 41.39929194 52.87232083 44.49042467 28.73632812 38.58886719 C13.99419242 34.63743629 -2.24159905 27.59767023 -11.3515625 14.8203125 C-12.41735524 11.50742965 -12.43080284 9.12304799 -11.3515625 5.8203125 C-8.45350711 1.23951526 -5.28535072 -0.26338957 0 0 Z " fill="#012919" transform="translate(456.3515625,596.1796875)"/>
<path d="M0 0 C2.50014115 3.74095194 1.90042304 6.44209421 1.125 10.75 C0.92132812 11.92046875 0.71765625 13.0909375 0.5078125 14.296875 C0.34023438 15.18890625 0.17265625 16.0809375 0 17 C0.99 17.33 1.98 17.66 3 18 C2.8125 19.875 2.8125 19.875 2 22 C-0.55078125 23.1328125 -0.55078125 23.1328125 -3 24 C-2.45423097 15.89963866 -1.45852964 7.98651182 0 0 Z " fill="#E2E7E5" transform="translate(529,367)"/>
<path d="M0 0 C0.33 0 0.66 0 1 0 C1 4.95 1 9.9 1 15 C1.33 15 1.66 15 2 15 C1.4618629 20.69051363 0.8599867 26.34865884 0 32 C-0.33 32 -0.66 32 -1 32 C-1.02907584 27.6041806 -1.0468244 23.20838601 -1.0625 18.8125 C-1.07087891 17.56662109 -1.07925781 16.32074219 -1.08789062 15.03710938 C-1.09111328 13.83505859 -1.09433594 12.63300781 -1.09765625 11.39453125 C-1.10289307 10.28956299 -1.10812988 9.18459473 -1.11352539 8.04614258 C-1.00901923 5.24200621 -0.64097959 2.72582671 0 0 Z " fill="#8EE03C" transform="translate(508,343)"/>
<path d="M0 0 C0.66 0.33 1.32 0.66 2 1 C-2.85732135 6.81328353 -7.71880965 11.74015016 -14 16 C-12.34136495 11.67495164 -9.128959 8.90581175 -5.875 5.75 C-5.31167969 5.19570313 -4.74835938 4.64140625 -4.16796875 4.0703125 C-2.78313972 2.70895515 -1.39216796 1.35385141 0 0 Z " fill="#89DC39" transform="translate(333,416)"/>
<path d="M0 0 C0.66 0.33 1.32 0.66 2 1 C-3.28 5.95 -8.56 10.9 -14 16 C-14 13 -14 13 -11.953125 10.625 C-11.06109375 9.75875 -10.1690625 8.8925 -9.25 8 C-7.92742188 6.700625 -7.92742188 6.700625 -6.578125 5.375 C-4.45751489 3.42146826 -2.34701696 1.66704009 0 0 Z " fill="#021313" transform="translate(546,301)"/>
<path d="M0 0 C0.66 0.33 1.32 0.66 2 1 C1.67 4.3 1.34 7.6 1 11 C0.34 11 -0.32 11 -1 11 C-1 12.98 -1 14.96 -1 17 C-1.33 17 -1.66 17 -2 17 C-2.21824777 10.9981863 -1.5056904 5.80766296 0 0 Z " fill="#80D137" transform="translate(292,488)"/>
<path d="M0 0 C2.125 0.375 2.125 0.375 4 1 C3.8125 2.875 3.8125 2.875 3 5 C0.4375 6.25 0.4375 6.25 -2 7 C-2.125 4.625 -2.125 4.625 -2 2 C-1.34 1.34 -0.68 0.68 0 0 Z " fill="#D8E0DE" transform="translate(528,384)"/>
<path d="M0 0 C0.33 0 0.66 0 1 0 C1.14285714 7.42857143 1.14285714 7.42857143 0 11 C-0.66 11 -1.32 11 -2 11 C-2 12.65 -2 14.3 -2 16 C-2.33 16 -2.66 16 -3 16 C-2.88487847 14.27014758 -2.75744323 12.54111249 -2.625 10.8125 C-2.55539062 9.84957031 -2.48578125 8.88664062 -2.4140625 7.89453125 C-1.99784147 4.98491062 -1.20125904 2.67109226 0 0 Z " fill="#82D437" transform="translate(512,326)"/>
<path d="M0 0 C0 4.64285714 0 4.64285714 -1 7 C-4.0625 9.25 -4.0625 9.25 -7 11 C-5.5140084 6.40693504 -3.14985318 3.56430755 0 0 Z " fill="#83D437" transform="translate(318,432)"/>
<path d="M0 0 C0.33 0.66 0.66 1.32 1 2 C-0.98 4.31 -2.96 6.62 -5 9 C-5.66 8.34 -6.32 7.68 -7 7 C-4.69 4.69 -2.38 2.38 0 0 Z " fill="#F2F4F4" transform="translate(687,692)"/>
<path d="M0 0 C0.99 0.33 1.98 0.66 3 1 C0.03 3.64 -2.94 6.28 -6 9 C-6 6 -6 6 -4.6875 4.39453125 C-4.130625 3.87246094 -3.57375 3.35039062 -3 2.8125 C-2.443125 2.28269531 -1.88625 1.75289062 -1.3125 1.20703125 C-0.6628125 0.60955078 -0.6628125 0.60955078 0 0 Z " fill="#061B0E" transform="translate(534,254)"/>
<path d="M0 0 C0.66 0.99 1.32 1.98 2 3 C0.35 4.32 -1.3 5.64 -3 7 C-3 3.48283697 -2.17554415 2.62878252 0 0 Z " fill="#E4E8E6" transform="translate(697,679)"/>
<path d="M0 0 C3.25524265 3.02272532 5.61820737 6.25718301 8 10 C7.01 10 6.02 10 5 10 C3.61328125 8.3203125 3.61328125 8.3203125 2.3125 6.125 C1.87550781 5.40570312 1.43851562 4.68640625 0.98828125 3.9453125 C0 2 0 2 0 0 Z " fill="#0A1F11" transform="translate(310,658)"/>
<path d="M0 0 C2.64752004 2.57784846 4.94432065 4.91648098 7 8 C6.01 8 5.02 8 4 8 C0 2.74285714 0 2.74285714 0 0 Z " fill="#0F2819" transform="translate(322,675)"/>
</svg>
